<?xml version="1.0" encoding="UTF-8" standalone="no"?>
<!DOCTYPE svg PUBLIC "-//W3C//DTD SVG 1.1//EN" "http://www.w3.org/Graphics/SVG/1.1/DTD/svg11.dtd">
<svg width="100%" height="100%" viewBox="0 0 175 175" version="1.1" xmlns="http://www.w3.org/2000/svg" xmlns:xlink="http://www.w3.org/1999/xlink" xml:space="preserve" xmlns:serif="http://www.serif.com/" style="fill-rule:evenodd;clip-rule:evenodd;stroke-linejoin:round;stroke-miterlimit:2;">
    <g transform="matrix(0.21875,0,0,0.21875,-358.334,-1333.34)">
        <g id="SVGRepo_iconCarrier">
            <g id="Page-1">
                <g id="Dribbble-Light-Preview">
                    <g id="icons">
                        <path id="star_favorite---1499-" serif:id="star_favorite-[#1499]" d="M2306.91,6579.28C2289.83,6595.77 2282.07,6619.54 2286.07,6642.86L2311.87,6792.04C2319.91,6838.48 2282.71,6876.19 2240.51,6876.19C2229.39,6876.19 2217.91,6873.56 2206.79,6867.77L2071.79,6797.33C2061.23,6791.85 2049.67,6789.11 2038.07,6789.11C2026.51,6789.11 2014.95,6791.85 2004.39,6797.33L1869.39,6867.77C1858.27,6873.56 1846.79,6876.19 1835.67,6876.19C1793.47,6876.19 1756.27,6838.48 1764.31,6792.04L1790.11,6642.86C1794.11,6619.54 1786.35,6595.77 1769.27,6579.28L1660.03,6473.64C1617.07,6432.08 1640.79,6359.66 1700.15,6351.09L1851.11,6329.33C1874.71,6325.94 1895.11,6311.24 1905.63,6290.02L1973.15,6154.32C1986.43,6127.62 2012.27,6114.29 2038.07,6114.29C2063.91,6114.29 2089.75,6127.62 2103.03,6154.32L2170.55,6290.02C2181.07,6311.24 2201.47,6325.94 2225.07,6329.33L2376.03,6351.09C2435.39,6359.66 2459.11,6432.08 2416.15,6473.64L2306.91,6579.28Z" style="fill:rgb(199,183,238);"/>
                    </g>
                </g>
            </g>
        </g>
    </g>
</svg>
